<svg version="1.1" id="Layer_1" xmlns="http://www.w3.org/2000/svg" xmlns:xlink="http://www.w3.org/1999/xlink" x="0px" y="0px"
	 width="100%" viewBox="0 0 225 225" enable-background="new 0 0 225 225" xml:space="preserve">
<path fill="#E20074" opacity="1.000000" stroke="none" 
	d="
M131.000000,226.000000 
	C87.333336,226.000000 44.166672,226.000000 1.000006,226.000000 
	C1.000004,151.000000 1.000004,76.000015 1.000002,1.000016 
	C75.999992,1.000011 150.999985,1.000011 225.999969,1.000005 
	C225.999985,75.999985 225.999985,150.999969 226.000000,225.999969 
	C194.500000,226.000000 163.000000,226.000000 131.000000,226.000000 
M179.260590,106.464539 
	C171.891830,106.309692 164.522858,106.044418 157.154404,106.057762 
	C154.444092,106.062668 151.735001,106.725777 148.967346,108.013275 
	C148.967346,118.264297 148.967346,128.515320 148.967346,138.943298 
	C159.835846,138.943298 170.197922,138.943298 180.988098,138.943298 
	C180.988098,128.922806 181.012894,119.160751 180.944778,109.399361 
	C180.938812,108.544380 180.323166,107.693649 179.260590,106.464539 
M46.265625,107.324669 
	C46.265625,117.883545 46.265625,128.442429 46.265625,138.824829 
	C57.069309,138.824829 67.439957,138.824829 77.974648,138.824829 
	C77.974648,127.992615 77.974648,117.540634 77.294601,106.619453 
	C67.199516,106.693283 57.104439,106.767113 46.265625,107.324669 
M98.958839,162.796539 
	C98.349335,180.581192 86.265900,183.238297 71.995743,182.532104 
	C71.995743,186.773895 71.995743,190.390213 72.699928,194.440384 
	C73.668587,194.622147 74.637039,194.961426 75.605934,194.962677 
	C100.648163,194.995056 125.690468,195.008804 150.732605,194.952179 
	C152.155045,194.948975 153.576080,194.319351 155.196442,193.080170 
	C155.196442,189.679703 155.196442,186.279236 155.196442,182.974533 
	C132.962357,180.446167 129.032196,177.477402 128.540558,162.253845 
	C128.693710,160.114548 128.978119,157.975372 128.980469,155.835922 
	C129.021072,118.824448 129.026978,81.812950 129.924286,44.544510 
	C132.243362,44.671276 134.566757,44.744881 136.880814,44.933323 
	C153.488754,46.285755 165.859421,56.625782 169.678055,72.761581 
	C170.806717,77.530754 171.007401,82.519547 171.731186,88.171753 
	C174.864929,87.778358 177.998383,87.385010 181.518692,86.266121 
	C181.595764,69.303795 181.677567,52.341484 181.724518,35.379078 
	C181.725784,34.923290 181.349701,34.466454 180.909576,33.496822 
	C180.603607,33.286213 180.297653,33.075607 179.265610,32.479412 
	C177.790390,32.319767 176.315262,32.021557 174.839935,32.020660 
	C133.644196,31.995665 92.448402,31.986700 51.252739,32.049900 
	C49.516792,32.052563 47.781940,32.772499 46.022396,34.075493 
	C46.022396,51.975697 46.022396,69.875900 46.022396,87.587936 
	C49.665401,87.587936 52.582790,87.587936 55.439690,87.587936 
	C59.111485,56.388233 72.394417,43.139061 97.983261,45.821514 
	C97.988838,82.261589 97.979454,118.701691 98.035690,155.141678 
	C98.039215,157.423157 98.556252,159.703827 98.958839,162.796539 
z"/>
<path fill="#FFFDFE" opacity="1.000000" stroke="none" 
	d="
M71.995743,194.006516 
	C71.995743,190.390213 71.995743,186.773895 71.995743,182.532104 
	C86.265900,183.238297 98.349335,180.581192 98.966248,161.927368 
	C98.981354,123.816261 99.000992,86.574333 98.953133,49.332489 
	C98.951225,47.843502 98.309105,46.355335 97.965279,44.866783 
	C72.394417,43.139061 59.111485,56.388233 55.439690,87.587936 
	C52.582790,87.587936 49.665401,87.587936 46.022396,87.587936 
	C46.022396,69.875900 46.022396,51.975697 46.497711,33.564903 
	C64.743629,33.048740 82.514252,33.061058 100.284813,33.033390 
	C126.853790,32.992027 153.422729,32.922531 179.991684,32.865002 
	C180.297653,33.075607 180.603607,33.286213 180.966309,34.218117 
	C181.059296,52.290161 181.095551,69.640907 181.131821,86.991653 
	C177.998383,87.385010 174.864929,87.778358 171.731186,88.171753 
	C171.007401,82.519547 170.806717,77.530754 169.678055,72.761581 
	C165.859421,56.625782 153.488754,46.285755 136.880814,44.933323 
	C134.566757,44.744881 132.243362,44.671276 129.080338,44.879688 
	C128.212982,84.470985 128.189575,123.727097 128.166168,162.983215 
	C129.032196,177.477402 132.962357,180.446167 155.196442,182.974533 
	C155.196442,186.279236 155.196442,189.679703 154.628540,193.526642 
	C126.705666,193.984253 99.350700,193.995392 71.995743,194.006516 
z"/>
<path fill="#FFFFFF" opacity="1.000000" stroke="none" 
	d="
M77.974648,107.088654 
	C77.974648,117.540634 77.974648,127.992615 77.974648,138.824829 
	C67.439957,138.824829 57.069309,138.824829 46.265625,138.824829 
	C46.265625,128.442429 46.265625,117.883545 47.101448,107.152229 
	C57.949726,107.016075 67.962189,107.052368 77.974648,107.088654 
z"/>
<path fill="#FFFFFF" opacity="1.000000" stroke="none" 
	d="
M179.990692,106.840950 
	C180.323166,107.693649 180.938812,108.544380 180.944778,109.399361 
	C181.012894,119.160751 180.988098,128.922806 180.988098,138.943298 
	C170.197922,138.943298 159.835846,138.943298 148.967346,138.943298 
	C148.967346,128.515320 148.967346,118.264297 149.462097,107.513351 
	C159.968124,106.955933 169.979416,106.898445 179.990692,106.840950 
z"/>
<path fill="#E00067" opacity="1.000000" stroke="none" 
	d="
M179.628647,32.672207 
	C153.422729,32.922531 126.853790,32.992027 100.284813,33.033390 
	C82.514252,33.061058 64.743629,33.048740 46.509804,33.106300 
	C47.781940,32.772499 49.516792,32.052563 51.252739,32.049900 
	C92.448402,31.986700 133.644196,31.995665 174.839935,32.020660 
	C176.315262,32.021557 177.790390,32.319767 179.628647,32.672207 
z"/>
<path fill="#E00067" opacity="1.000000" stroke="none" 
	d="
M128.353363,162.618530 
	C128.189575,123.727097 128.212982,84.470985 128.638428,45.008160 
	C129.026978,81.812950 129.021072,118.824448 128.980469,155.835922 
	C128.978119,157.975372 128.693710,160.114548 128.353363,162.618530 
z"/>
<path fill="#E00066" opacity="1.000000" stroke="none" 
	d="
M97.974274,45.344147 
	C98.309105,46.355335 98.951225,47.843502 98.953133,49.332489 
	C99.000992,86.574333 98.981354,123.816261 98.904015,161.521530 
	C98.556252,159.703827 98.039215,157.423157 98.035690,155.141678 
	C97.979454,118.701691 97.988838,82.261589 97.974274,45.344147 
z"/>
<path fill="#E00067" opacity="1.000000" stroke="none" 
	d="
M72.347839,194.223450 
	C99.350700,193.995392 126.705666,193.984253 154.529205,193.977203 
	C153.576080,194.319351 152.155045,194.948975 150.732605,194.952179 
	C125.690468,195.008804 100.648163,194.995056 75.605934,194.962677 
	C74.637039,194.961426 73.668587,194.622147 72.347839,194.223450 
z"/>
<path fill="#E00067" opacity="1.000000" stroke="none" 
	d="
M181.325256,86.628891 
	C181.095551,69.640907 181.059296,52.290161 181.086304,34.474762 
	C181.349701,34.466454 181.725784,34.923290 181.724518,35.379078 
	C181.677567,52.341484 181.595764,69.303795 181.325256,86.628891 
z"/>
<path fill="#E00067" opacity="1.000000" stroke="none" 
	d="
M77.634628,106.854050 
	C67.962189,107.052368 57.949726,107.016075 47.473312,106.910370 
	C57.104439,106.767113 67.199516,106.693283 77.634628,106.854050 
z"/>
<path fill="#E00067" opacity="1.000000" stroke="none" 
	d="
M179.625641,106.652740 
	C169.979416,106.898445 159.968124,106.955933 149.491089,107.051041 
	C151.735001,106.725777 154.444092,106.062668 157.154404,106.057762 
	C164.522858,106.044418 171.891830,106.309692 179.625641,106.652740 
z"/>
</svg>